# Blender v2.78 (sub 0) OBJ File: '19.blend'
# www.blender.org
mtllib Scissors_01.mtl
o Scissors_Cube.041
v -0.015698 5.579296 -0.425612
v 0.116685 5.579296 -0.425612
v -0.015698 5.593838 0.328802
v 0.116685 5.593838 0.328802
v -0.015954 0.006143 -0.189357
v 0.077056 0.006143 -0.189357
v -0.015954 0.011810 0.071030
v 0.077056 0.011810 0.071030
v -0.015698 6.126623 0.313930
v -0.015698 5.846450 -0.425618
v 0.116685 5.846450 -0.425618
v 0.116685 6.126623 0.313930
v -0.011011 6.527504 0.079901
v -0.011011 6.247330 -0.526945
v 0.168197 6.247330 -0.526945
v 0.168197 6.527504 0.079901
v -0.011011 9.872274 -0.346406
v -0.011011 8.785031 -2.577598
v 0.210054 8.785031 -2.577598
v 0.206013 9.872274 -0.346406
v -0.015698 5.586567 -0.005319
v 0.116685 5.586567 -0.005319
v -0.015954 0.008975 -0.059163
v 0.077056 0.008975 -0.059163
v -0.015698 5.986537 -0.018877
v 0.116685 5.986537 -0.018877
v -0.011011 6.387417 -0.223522
v 0.168197 6.387417 -0.223522
v -0.011011 9.966774 -1.654672
v 0.206013 9.966774 -1.654672
v -0.011011 7.096642 -0.536940
v -0.011011 7.018396 -0.706421
v 0.196589 7.096642 -0.536940
v 0.196589 7.174888 -0.367460
v -0.011011 9.330751 -1.492761
v -0.011011 8.657464 -1.992301
v 0.196589 9.330751 -1.492761
v 0.196589 8.836759 -0.605579
v -0.011011 7.174888 -0.367460
v -0.011011 8.836759 -0.605579
v 0.196589 7.018396 -0.706421
v 0.196589 8.657464 -1.992301
v 0.206013 9.973172 -0.963526
v -0.011011 9.973172 -0.963526
v 0.196589 9.328204 -0.894968
v -0.011011 9.328204 -0.894968
v -0.011011 9.728847 -2.387195
v 0.206013 9.728847 -2.387195
v -0.011011 9.148678 -1.887854
v 0.196589 9.148678 -1.887854
v 0.206013 7.686140 -1.918287
v -0.011011 7.686140 -1.918287
v 0.196589 7.788772 -1.573364
v -0.011011 7.788772 -1.573364
v -0.155121 5.579296 0.407607
v -0.022737 5.579296 0.407607
v -0.155121 5.593838 -0.346807
v -0.022737 5.593838 -0.346807
v -0.114391 0.006143 0.171351
v -0.021380 0.006143 0.171351
v -0.114391 0.011810 -0.089036
v -0.021380 0.011810 -0.089036
v -0.155120 6.126623 -0.331935
v -0.155121 5.846450 0.407612
v -0.022737 5.846450 0.407612
v -0.022737 6.126623 -0.331935
v -0.249203 6.527504 -0.097907
v -0.249203 6.247330 0.508940
v -0.022737 6.247330 0.508940
v -0.022737 6.527504 -0.097907
v -0.430419 9.872274 0.328401
v -0.355639 8.785031 2.559593
v -0.018696 8.785031 2.559593
v -0.022737 9.872274 0.328401
v -0.155121 5.586567 -0.012687
v -0.022737 5.586567 -0.012687
v -0.114391 0.008975 0.041157
v -0.021380 0.008975 0.041157
v -0.155120 5.986537 0.000871
v -0.022737 5.986537 0.000871
v -0.249203 6.387417 0.205516
v -0.022737 6.387417 0.205516
v -0.430419 9.966774 1.636667
v -0.022737 9.966774 1.636667
v -0.404332 7.096642 0.518935
v -0.404332 7.018396 0.688415
v -0.032161 7.096642 0.518935
v -0.032161 7.174888 0.349454
v -0.404332 9.330751 1.474756
v -0.404332 8.657464 1.974295
v -0.032161 9.330751 1.474756
v -0.032161 8.836759 0.587573
v -0.404332 7.174888 0.349454
v -0.404332 8.836759 0.587573
v -0.032161 7.018396 0.688415
v -0.032161 8.657464 1.974295
v -0.022737 9.973172 0.945521
v -0.430419 9.973172 0.945521
v -0.032161 9.328204 0.876963
v -0.404332 9.328204 0.876963
v -0.430419 9.728847 2.369190
v -0.022737 9.728847 2.369190
v -0.404332 9.148678 1.869848
v -0.032161 9.148678 1.869848
v -0.022737 7.686140 1.900281
v -0.430419 7.686140 1.900281
v -0.032161 7.788772 1.555358
v -0.404332 7.788772 1.555358
v -0.173718 5.718737 -0.259023
v -0.173718 5.889703 -0.188206
v -0.173718 5.960519 -0.017240
v -0.173718 5.889703 0.153727
v -0.173718 5.718737 0.224544
v -0.173718 5.547771 0.153727
v -0.173718 5.476954 -0.017240
v -0.173718 5.547771 -0.188206
v 0.130152 5.718737 -0.259023
v 0.130152 5.889703 -0.188206
v 0.130152 5.960519 -0.017240
v 0.130152 5.889703 0.153727
v 0.130152 5.718737 0.224544
v 0.130152 5.547771 0.153727
v 0.130152 5.476954 -0.017240
v 0.130152 5.547771 -0.188206
v 0.130152 5.718737 -0.017240
v -0.173718 5.718737 -0.017240
vn 0.0000 0.0279 0.9996
vn 0.0000 -0.0461 0.9989
vn 0.0000 -0.9998 0.0218
vn 0.0000 -0.0424 -0.9991
vn -1.0000 0.0000 -0.0000
vn 1.0000 -0.0071 0.0001
vn 0.9937 -0.1029 0.0453
vn 0.0000 -0.0000 -1.0000
vn 1.0000 -0.0000 0.0000
vn -0.9999 0.0102 -0.0040
vn 0.0000 0.5042 0.8636
vn 0.0000 -0.2451 -0.9695
vn -0.9999 0.0094 -0.0041
vn 0.9929 -0.1109 0.0437
vn 1.0000 -0.0071 0.0002
vn 0.0000 0.0279 -0.9996
vn 0.0000 -0.0461 -0.9989
vn 0.0000 -0.9998 -0.0218
vn 0.0000 -0.0424 0.9991
vn -1.0000 -0.0073 -0.0001
vn 1.0000 0.0002 0.0000
vn 0.0000 -0.0000 1.0000
vn -0.9768 -0.1992 -0.0786
vn 0.0000 0.5042 -0.8636
vn 0.0000 -0.2451 0.9695
vn -0.9793 -0.1852 -0.0816
vn -1.0000 -0.0073 -0.0002
vn 0.0000 0.9239 -0.3827
vn 0.0000 -0.9239 -0.3827
vn 0.0000 -0.3827 0.9239
vn 0.0000 0.9239 0.3827
vn 0.0000 0.3827 -0.9239
vn 0.0000 -0.3827 -0.9239
vn 0.0000 -0.9239 0.3827
vn 0.0000 0.3827 0.9239
vn 0.0000 0.1264 0.9920
vn 0.0000 0.9869 0.1614
vn 0.0000 -0.5145 -0.8575
vn 0.9999 -0.0147 0.0000
vn 0.9996 -0.0037 0.0289
vn 0.9993 -0.0332 0.0153
vn 0.0000 0.9511 -0.3089
vn 0.0000 1.0000 -0.0093
vn 0.9999 -0.0104 -0.0068
vn 0.9998 -0.0210 -0.0038
vn 0.9998 -0.0013 0.0202
vn 0.9999 -0.0129 0.0048
vn 0.0000 0.1978 -0.9803
vn 0.9996 0.0116 0.0249
vn 0.0000 -0.6951 -0.7189
vn 0.0000 0.9079 -0.4192
vn 0.0000 0.7475 0.6642
vn 0.0000 0.4344 0.9007
vn 0.0000 -0.2080 0.9781
vn 0.0000 -0.9082 0.4185
vn 0.0000 -1.0000 -0.0043
vn 0.0000 -0.5074 -0.8617
vn 0.0000 -0.1418 -0.9899
vn 0.0000 0.1264 -0.9920
vn 0.0000 0.9869 -0.1614
vn 0.0000 -0.5145 0.8575
vn -0.9806 -0.1781 -0.0822
vn 0.9997 -0.0033 0.0249
vn 0.9999 0.0110 0.0051
vn 0.0000 0.9511 0.3089
vn -0.9979 -0.0421 0.0483
vn 0.0000 1.0000 0.0093
vn 0.9999 -0.0104 0.0068
vn -0.9992 -0.0407 -0.0001
vn -0.9994 -0.0289 0.0189
vn 0.9997 0.0182 -0.0178
vn 0.9998 -0.0013 -0.0202
vn -0.9993 -0.0356 -0.0133
vn -0.9994 0.0250 0.0236
vn -0.9826 -0.0110 -0.1855
vn 0.9999 -0.0129 -0.0048
vn 0.0000 0.1978 0.9803
vn -0.9893 -0.1360 0.0536
vn 0.9996 0.0116 -0.0249
vn 0.0000 -0.6951 0.7189
vn 0.0000 0.9079 0.4192
vn 0.0000 0.7475 -0.6642
vn 0.0000 0.4344 -0.9007
vn 0.0000 -0.2080 -0.9781
vn 0.0000 -0.9082 -0.4185
vn 0.0000 -1.0000 0.0043
vn 0.0000 -0.5074 0.8617
vn 0.0000 -0.1418 0.9899
usemtl 455A64
s off
f 4//1 12//1 9//1 3//1
f 3//2 7//2 8//2 4//2
f 23//3 5//3 6//3 24//3
f 5//4 1//4 2//4 6//4
f 21//5 1//5 5//5 23//5
f 24//6 6//6 2//6 22//6
f 26//7 28//7 16//7 12//7
f 1//8 10//8 11//8 2//8
f 22//9 26//9 12//9 4//9
f 21//5 25//5 10//5 1//5
f 25//10 27//10 14//10 10//10
f 12//11 16//11 13//11 9//11
f 10//12 14//12 15//12 11//12
f 9//13 13//13 27//13 25//13
f 3//5 9//5 25//5 21//5
f 2//9 11//9 26//9 22//9
f 11//14 15//14 28//14 26//14
f 8//15 24//15 22//15 4//15
f 3//5 21//5 23//5 7//5
f 7//3 23//3 24//3 8//3
f 58//16 57//16 63//16 66//16
f 57//17 58//17 62//17 61//17
f 77//18 78//18 60//18 59//18
f 59//19 60//19 56//19 55//19
f 75//20 77//20 59//20 55//20
f 78//21 76//21 56//21 60//21
f 80//9 66//9 70//9 82//9
f 55//22 56//22 65//22 64//22
f 76//9 58//9 66//9 80//9
f 75//5 55//5 64//5 79//5
f 79//23 64//23 68//23 81//23
f 66//24 63//24 67//24 70//24
f 64//25 65//25 69//25 68//25
f 63//26 79//26 81//26 67//26
f 57//5 75//5 79//5 63//5
f 56//9 76//9 80//9 65//9
f 65//9 80//9 82//9 69//9
f 62//21 58//21 76//21 78//21
f 57//27 61//27 77//27 75//27
f 61//18 62//18 78//18 77//18
f 111//28 119//28 118//28 110//28
f 116//29 124//29 123//29 115//29
f 114//30 122//30 121//30 113//30
f 112//31 120//31 119//31 111//31
f 110//32 118//32 117//32 109//32
f 109//33 117//33 124//33 116//33
f 115//34 123//34 122//34 114//34
f 113//35 121//35 120//35 112//35
f 122//9 125//9 121//9
f 120//9 125//9 119//9
f 118//9 125//9 117//9
f 117//9 125//9 124//9
f 123//9 125//9 122//9
f 121//9 125//9 120//9
f 119//9 125//9 118//9
f 124//9 125//9 123//9
f 110//5 126//5 111//5
f 115//5 126//5 116//5
f 113//5 126//5 114//5
f 111//5 126//5 112//5
f 109//5 126//5 110//5
f 116//5 126//5 109//5
f 114//5 126//5 115//5
f 112//5 126//5 113//5
usemtl F44336
f 16//36 20//36 17//36 13//36
f 44//37 17//37 20//37 43//37
f 52//38 18//38 19//38 51//38
f 27//5 31//5 32//5 14//5
f 43//39 45//39 37//39 30//39
f 16//40 34//40 38//40 20//40
f 15//41 41//41 33//41 28//41
f 47//42 29//42 30//42 48//42
f 18//5 36//5 49//5 47//5
f 29//43 44//43 43//43 30//43
f 20//44 38//44 45//44 43//44
f 29//5 35//5 46//5 44//5
f 44//5 46//5 40//5 17//5
f 51//45 53//45 41//45 15//45
f 48//46 50//46 42//46 19//46
f 47//5 49//5 35//5 29//5
f 52//5 54//5 36//5 18//5
f 13//5 39//5 31//5 27//5
f 17//5 40//5 39//5 13//5
f 28//41 33//41 34//41 16//41
f 30//47 37//47 50//47 48//47
f 18//48 47//48 48//48 19//48
f 14//5 32//5 54//5 52//5
f 19//49 42//49 53//49 51//49
f 14//50 52//50 51//50 15//50
f 31//51 33//51 41//51 32//51
f 54//52 32//52 41//52 53//52
f 53//53 42//53 36//53 54//53
f 49//54 36//54 42//54 50//54
f 50//55 37//55 35//55 49//55
f 46//56 35//56 37//56 45//56
f 45//57 38//57 40//57 46//57
f 39//58 40//58 38//58 34//58
f 33//51 31//51 39//51 34//51
f 70//59 67//59 71//59 74//59
f 98//60 97//60 74//60 71//60
f 106//61 105//61 73//61 72//61
f 81//62 68//62 86//62 85//62
f 97//39 84//39 91//39 99//39
f 70//63 74//63 92//63 88//63
f 69//64 82//64 87//64 95//64
f 101//65 102//65 84//65 83//65
f 72//66 101//66 103//66 90//66
f 83//67 84//67 97//67 98//67
f 74//68 97//68 99//68 92//68
f 83//69 98//69 100//69 89//69
f 98//70 71//70 94//70 100//70
f 105//71 69//71 95//71 107//71
f 102//72 73//72 96//72 104//72
f 101//73 83//73 89//73 103//73
f 106//74 72//74 90//74 108//74
f 67//62 81//62 85//62 93//62
f 71//75 67//75 93//75 94//75
f 82//64 70//64 88//64 87//64
f 84//76 102//76 104//76 91//76
f 72//77 73//77 102//77 101//77
f 68//78 106//78 108//78 86//78
f 73//79 105//79 107//79 96//79
f 68//80 69//80 105//80 106//80
f 85//81 86//81 95//81 87//81
f 108//82 107//82 95//82 86//82
f 107//83 108//83 90//83 96//83
f 103//84 104//84 96//84 90//84
f 104//85 103//85 89//85 91//85
f 100//86 99//86 91//86 89//86
f 99//87 100//87 94//87 92//87
f 93//88 88//88 92//88 94//88
f 87//81 88//81 93//81 85//81
